<svg width="1200" height="800" viewBox="0 0 1200 800" fill="none" xmlns="http://www.w3.org/2000/svg">
  <rect width="1200" height="800" rx="36" fill="#EEF6FF"/>
  <rect x="82" y="58" width="1036" height="684" rx="28" fill="white"/>
  <rect x="140" y="122" width="110" height="110" rx="24" fill="#E0F2FE"/>
  <rect x="286" y="124" width="226" height="24" rx="12" fill="#0F172A"/>
  <rect x="286" y="166" width="180" height="18" rx="9" fill="#94A3B8"/>
  <rect x="838" y="124" width="160" height="22" rx="11" fill="#0F172A"/>
  <rect x="838" y="164" width="118" height="16" rx="8" fill="#94A3B8"/>
  <rect x="140" y="292" width="920" height="58" rx="14" fill="#F8FAFC"/>
  <rect x="160" y="312" width="120" height="18" rx="9" fill="#64748B"/>
  <rect x="462" y="312" width="92" height="18" rx="9" fill="#64748B"/>
  <rect x="676" y="312" width="92" height="18" rx="9" fill="#64748B"/>
  <rect x="894" y="312" width="120" height="18" rx="9" fill="#64748B"/>
  <rect x="140" y="380" width="920" height="66" rx="14" fill="#FFFFFF"/>
  <rect x="140" y="470" width="920" height="66" rx="14" fill="#FFFFFF"/>
  <rect x="140" y="560" width="920" height="66" rx="14" fill="#FFFFFF"/>
  <rect x="740" y="658" width="320" height="20" rx="10" fill="#CBD5E1"/>
  <rect x="836" y="700" width="224" height="28" rx="14" fill="#0F766E"/>
  <text x="140" y="88" fill="#0F172A" font-size="34" font-family="Arial, sans-serif" font-weight="700">Exemple de facture claire et professionnelle</text>
</svg>
