<svg width="1200" height="800" viewBox="0 0 1200 800" fill="none" xmlns="http://www.w3.org/2000/svg">
  <rect width="1200" height="800" rx="36" fill="#F8FAFC"/>
  <rect x="82" y="70" width="1036" height="660" rx="28" fill="#0F172A"/>
  <rect x="132" y="122" width="936" height="112" rx="24" fill="url(#a)"/>
  <rect x="174" y="160" width="204" height="22" rx="11" fill="white" fill-opacity=".92"/>
  <rect x="174" y="198" width="140" height="16" rx="8" fill="white" fill-opacity=".55"/>
  <rect x="834" y="152" width="184" height="48" rx="16" fill="white" fill-opacity=".18"/>
  <rect x="132" y="282" width="440" height="372" rx="24" fill="#111827"/>
  <rect x="132" y="282" width="440" height="72" rx="24" fill="#1F2937"/>
  <rect x="178" y="384" width="286" height="18" rx="9" fill="#334155"/>
  <rect x="178" y="430" width="238" height="18" rx="9" fill="#334155"/>
  <rect x="178" y="476" width="270" height="18" rx="9" fill="#334155"/>
  <rect x="178" y="546" width="120" height="42" rx="14" fill="#0F766E"/>
  <rect x="610" y="282" width="458" height="172" rx="24" fill="#FFFFFF"/>
  <rect x="654" y="332" width="210" height="18" rx="9" fill="#0F172A"/>
  <rect x="654" y="372" width="164" height="16" rx="8" fill="#94A3B8"/>
  <rect x="610" y="482" width="458" height="172" rx="24" fill="#FFFFFF"/>
  <rect x="654" y="532" width="218" height="18" rx="9" fill="#0F172A"/>
  <rect x="654" y="572" width="180" height="16" rx="8" fill="#94A3B8"/>
  <text x="132" y="104" fill="#0F172A" font-size="34" font-family="Arial, sans-serif" font-weight="700">Suivi des paiements et relances clients</text>
  <defs>
    <linearGradient id="a" x1="132" y1="122" x2="1068" y2="234" gradientUnits="userSpaceOnUse">
      <stop stop-color="#0F766E"/>
      <stop offset="1" stop-color="#2563EB"/>
    </linearGradient>
  </defs>
</svg>
