<svg width="1600" height="900" viewBox="0 0 1600 900" fill="none" xmlns="http://www.w3.org/2000/svg">
  <rect width="1600" height="900" rx="36" fill="#111827"/>
  <rect x="34" y="34" width="260" height="832" rx="26" fill="#182131"/>
  <rect x="82" y="128" width="164" height="46" rx="14" fill="#2E8BFF"/>
  <rect x="340" y="34" width="1226" height="832" rx="26" fill="#151D2B"/>
  <rect x="1150" y="92" width="250" height="54" rx="16" fill="#1EA5FC"/>
  <rect x="420" y="176" width="280" height="120" rx="24" fill="#253041"/>
  <rect x="728" y="176" width="280" height="120" rx="24" fill="#253041"/>
  <rect x="1036" y="176" width="280" height="120" rx="24" fill="#253041"/>
  <rect x="1344" y="176" width="180" height="120" rx="24" fill="#253041"/>
  <rect x="420" y="346" width="1104" height="76" rx="20" fill="#382426"/>
  <rect x="420" y="470" width="604" height="70" rx="20" fill="#253041"/>
  <rect x="420" y="584" width="1104" height="220" rx="24" fill="#253041"/>
  <rect x="454" y="642" width="1036" height="70" rx="18" fill="#2D394D"/>
  <rect x="454" y="724" width="1036" height="48" rx="14" fill="#2D394D"/>
  <text x="80" y="100" fill="white" font-size="32" font-family="Arial, sans-serif" font-weight="700">Factourati</text>
  <text x="420" y="130" fill="white" font-size="48" font-family="Arial, sans-serif" font-weight="700">Produits</text>
  <text x="460" y="226" fill="white" font-size="48" font-family="Arial, sans-serif" font-weight="700">2</text>
  <text x="458" y="262" fill="#CBD5E1" font-size="26" font-family="Arial, sans-serif">Total Produits</text>
  <text x="768" y="226" fill="white" font-size="48" font-family="Arial, sans-serif" font-weight="700">1</text>
  <text x="766" y="262" fill="#CBD5E1" font-size="26" font-family="Arial, sans-serif">Stock Faible</text>
  <text x="1076" y="226" fill="white" font-size="48" font-family="Arial, sans-serif" font-weight="700">0</text>
  <text x="1074" y="262" fill="#CBD5E1" font-size="26" font-family="Arial, sans-serif">Ruptures</text>
  <text x="1368" y="226" fill="white" font-size="48" font-family="Arial, sans-serif" font-weight="700">0</text>
  <text x="1368" y="262" fill="#CBD5E1" font-size="22" font-family="Arial, sans-serif">Commandes</text>
  <text x="460" y="392" fill="#FDE68A" font-size="34" font-family="Arial, sans-serif" font-weight="700">Alertes de Stock</text>
  <text x="458" y="516" fill="#94A3B8" font-size="26" font-family="Arial, sans-serif">Rechercher par nom, SKU ou categorie...</text>
</svg>
